<svg xmlns="http://www.w3.org/2000/svg" viewBox="0 0 800 240" preserveAspectRatio="xMidYMid slice">
  <rect width="800" height="240" fill="#f1e7d3"/>
  <!-- 遠山 -->
  <path d="M0,150 Q140,70 280,130 Q360,160 470,120 L470,240 L0,240 Z" fill="#5d5346" opacity="0.14"/>
  <path d="M380,170 Q520,90 660,140 Q740,168 800,150 L800,240 L380,240 Z" fill="#5d5346" opacity="0.2"/>
  <!-- 茶棚 -->
  <g opacity="0.8">
    <path d="M250,120 L400,104 L550,120 L540,132 L400,116 L260,132 Z" fill="#2b2620"/>
    <path d="M278,130 L278,208 M522,130 L522,208 M400,118 L400,150" stroke="#2b2620" stroke-width="6" stroke-linecap="round"/>
    <path d="M300,208 L500,208" stroke="#2b2620" stroke-width="4" stroke-linecap="round" opacity="0.7"/>
    <!-- 幌子 -->
    <path d="M540,124 L568,120 L570,168 L544,172 Z" fill="#8c2f1b" opacity="0.85"/>
    <text x="556" y="136" font-family="'Noto Serif TC','PMingLiU',serif" font-size="20" fill="#f4ecdc" text-anchor="middle" writing-mode="tb" transform="rotate(3 556 144)">茶</text>
  </g>
  <!-- 桌與茶碗 -->
  <g opacity="0.75">
    <path d="M340,186 L460,186 M356,186 L356,206 M444,186 L444,206" stroke="#2b2620" stroke-width="5" stroke-linecap="round"/>
    <path d="M382,180 q8,8 20,0 M382,180 h20" stroke="#2b2620" stroke-width="3" fill="none" stroke-linecap="round"/>
    <path d="M418,176 q-4,-12 4,-20 M426,176 q-4,-12 4,-20" stroke="#5d5346" stroke-width="2.4" fill="none" opacity="0.6" stroke-linecap="round"/>
  </g>
  <!-- 地面筆觸 -->
  <path d="M60,226 Q300,214 520,222 Q660,228 760,220" stroke="#5d5346" stroke-width="4" fill="none" opacity="0.24" stroke-linecap="round"/>
  <!-- 印 -->
  <rect x="736" y="24" width="34" height="34" rx="4" fill="#8c2f1b" opacity="0.8"/>
  <text x="753" y="48" font-family="'Noto Serif TC','PMingLiU',serif" font-size="20" fill="#f4ecdc" text-anchor="middle">聞</text>
</svg>
